<?xml version="1.0" encoding="utf-8"?>
<!-- Generator: Adobe Illustrator 18.1.1, SVG Export Plug-In . SVG Version: 6.00 Build 0)  -->
<svg version="1.1" id="Layer_1" xmlns="http://www.w3.org/2000/svg" xmlns:xlink="http://www.w3.org/1999/xlink" x="0px" y="0px"
	 viewBox="0 0 300 150" enable-background="new 0 0 300 150" xml:space="preserve">
<rect x="153.3" y="16.2" fill="#603913" width="2.8" height="84.2"/>
<polygon fill="#E6E7E8" points="157.2,17.2 215.4,88.7 157.2,88.7 "/>
<polygon fill="#E6E7E8" points="152.7,17.2 97.8,96.9 152.7,96.9 "/>
<rect x="207.1" y="91.2" fill="#8B5E3C" width="0.7" height="4.2"/>
<path fill="#A7A9AC" d="M80.6,100.2c0,0,42.2,27.5,99.5,13S248.8,93,248.8,93L80.6,100.2z"/>
<ellipse fill="#603913" cx="208.2" cy="91.7" rx="0.7" ry="1.6"/>
<ellipse fill="#FFFFFF" cx="208.2" cy="91.7" rx="0.5" ry="1.3"/>
<ellipse transform="matrix(0.9894 0.145 -0.145 0.9894 15.2424 -29.2258)" fill="#603913" cx="208.2" cy="90" rx="0.1" ry="0.3"/>
<ellipse transform="matrix(0.8021 -0.5971 0.5971 0.8021 -12.9664 141.8846)" fill="#603913" cx="207.6" cy="90.5" rx="0.1" ry="0.3"/>
<ellipse transform="matrix(0.145 -0.9894 0.9894 0.145 86.8496 283.2899)" fill="#603913" cx="207.3" cy="91.4" rx="0.1" ry="0.3"/>
<ellipse transform="matrix(-0.5971 -0.8021 0.8021 -0.5971 257.141 314.2628)" fill="#603913" cx="207.5" cy="92.6" rx="0.1" ry="0.3"/>
<ellipse transform="matrix(-0.9894 -0.145 0.145 -0.9894 400.4583 216.0242)" fill="#603913" cx="208.1" cy="93.4" rx="0.1" ry="0.3"/>
<ellipse transform="matrix(-0.8021 0.5971 -0.5971 -0.8021 431.701 42.9001)" fill="#603913" cx="208.7" cy="93" rx="0.1" ry="0.3"/>
<ellipse transform="matrix(-0.145 0.9894 -0.9894 -0.145 330.1733 -101.6772)" fill="#603913" cx="209" cy="91.8" rx="0.1" ry="0.3"/>
<ellipse transform="matrix(0.5971 0.8021 -0.8021 0.5971 157.2109 -130.9264)" fill="#603913" cx="208.9" cy="91" rx="0.1" ry="0.3"/>
<ellipse transform="matrix(0.9894 0.145 -0.145 0.9894 15.2884 -29.2849)" fill="#603913" cx="208.6" cy="90.3" rx="0.1" ry="0.3"/>
<ellipse fill="#603913" cx="208.2" cy="91.7" rx="0.2" ry="0.5"/>
<rect x="208.1" y="90.3" fill="#603913" width="0.1" height="1.1"/>
<rect x="208.1" y="92" fill="#603913" width="0.1" height="1.1"/>
<rect x="207.6" y="91.6" fill="#603913" width="1.1" height="0.1"/>
<rect x="208.1" y="90.8" transform="matrix(0.7071 0.7071 -0.7071 0.7071 125.8337 -120.3552)" fill="#603913" width="0.1" height="1.8"/>
<rect x="208.2" y="90.9" transform="matrix(-0.7071 0.7071 -0.7071 -0.7071 420.2708 9.3524)" fill="#603913" width="0.1" height="1.6"/>
<circle fill="#E6E7E8" stroke="#BCBEC0" stroke-miterlimit="10" cx="117.2" cy="105" r="1.7"/>
<circle cx="117.2" cy="103.2" r="0.2"/>
<circle cx="119" cy="105" r="0.2"/>
<circle cx="117.2" cy="106.7" r="0.2"/>
<circle cx="115.5" cy="105" r="0.2"/>
<circle cx="118.4" cy="103.7" r="0.2"/>
<circle cx="115.9" cy="106.1" r="0.2"/>
<circle cx="115.9" cy="103.7" r="0.2"/>
<circle cx="118.4" cy="106.1" r="0.2"/>
<circle fill="#E6E7E8" stroke="#BCBEC0" stroke-miterlimit="10" cx="129.6" cy="105" r="1.7"/>
<circle cx="129.6" cy="103.2" r="0.2"/>
<circle cx="131.4" cy="105" r="0.2"/>
<circle cx="129.6" cy="106.7" r="0.2"/>
<circle cx="127.9" cy="105" r="0.2"/>
<circle cx="130.8" cy="103.7" r="0.2"/>
<circle cx="128.4" cy="106.1" r="0.2"/>
<circle cx="128.4" cy="103.7" r="0.2"/>
<circle cx="130.8" cy="106.1" r="0.2"/>
<circle fill="#E6E7E8" stroke="#BCBEC0" stroke-miterlimit="10" cx="142.5" cy="105" r="1.7"/>
<circle cx="142.5" cy="103.2" r="0.2"/>
<circle cx="144.2" cy="105" r="0.2"/>
<circle cx="142.5" cy="106.7" r="0.2"/>
<circle cx="140.7" cy="105" r="0.2"/>
<circle cx="143.6" cy="103.7" r="0.2"/>
<circle cx="141.2" cy="106.1" r="0.2"/>
<circle cx="141.2" cy="103.7" r="0.2"/>
<circle cx="143.6" cy="106.1" r="0.2"/>
<circle fill="#E6E7E8" stroke="#BCBEC0" stroke-miterlimit="10" cx="157.3" cy="104.9" r="1.7"/>
<circle cx="157.3" cy="103.2" r="0.2"/>
<circle cx="159.1" cy="104.9" r="0.2"/>
<circle cx="157.3" cy="106.7" r="0.2"/>
<circle cx="155.6" cy="104.9" r="0.2"/>
<circle cx="158.5" cy="103.7" r="0.2"/>
<circle cx="156" cy="106.1" r="0.2"/>
<circle cx="156" cy="103.7" r="0.2"/>
<circle cx="158.5" cy="106.1" r="0.2"/>
<circle fill="#E6E7E8" stroke="#BCBEC0" stroke-miterlimit="10" cx="173.4" cy="104.9" r="1.7"/>
<circle cx="173.4" cy="103.2" r="0.2"/>
<circle cx="175.1" cy="104.9" r="0.2"/>
<circle cx="173.4" cy="106.7" r="0.2"/>
<circle cx="171.6" cy="104.9" r="0.2"/>
<circle cx="174.6" cy="103.7" r="0.2"/>
<circle cx="172.1" cy="106.1" r="0.2"/>
<circle cx="172.1" cy="103.7" r="0.2"/>
<circle cx="174.6" cy="106.1" r="0.2"/>
</svg>
